<svg width="24" height="40" viewBox="0 0 24 40" fill="none" xmlns="http://www.w3.org/2000/svg">
<path d="M10.144 35.08C8.064 35.016 6.208 34.824 4.576 34.504C2.944 34.152 1.456 33.672 0.112 33.064V26.872C1.424 27.512 3.008 28.104 4.864 28.648C6.72 29.16 8.48 29.464 10.144 29.56V22.312C8.288 21.576 6.704 20.872 5.392 20.2C4.112 19.528 3.072 18.824 2.272 18.088C1.504 17.32 0.944 16.488 0.592 15.592C0.24 14.664 0.0640001 13.608 0.0640001 12.424C0.0640001 10.824 0.48 9.448 1.312 8.296C2.176 7.112 3.36 6.168 4.864 5.464C6.4 4.76 8.16 4.328 10.144 4.168V0.567997H13.36V4.072C15.152 4.136 16.832 4.344 18.4 4.696C20 5.048 21.552 5.56 23.056 6.232L20.848 11.704C19.568 11.16 18.272 10.744 16.96 10.456C15.68 10.168 14.48 9.976 13.36 9.88V16.792C15.088 17.432 16.736 18.136 18.304 18.904C19.872 19.64 21.136 20.584 22.096 21.736C23.088 22.888 23.584 24.408 23.584 26.296C23.584 28.632 22.736 30.584 21.04 32.152C19.344 33.72 16.784 34.664 13.36 34.984V39.784H10.144V35.08ZM13.36 29.416C14.448 29.224 15.248 28.904 15.76 28.456C16.272 27.976 16.528 27.368 16.528 26.632C16.528 26.184 16.4 25.8 16.144 25.48C15.92 25.128 15.568 24.808 15.088 24.52C14.64 24.2 14.064 23.88 13.36 23.56V29.416ZM10.144 9.976C9.504 10.072 8.96 10.232 8.512 10.456C8.064 10.648 7.712 10.92 7.456 11.272C7.232 11.592 7.12 11.976 7.12 12.424C7.12 12.872 7.216 13.272 7.408 13.624C7.632 13.944 7.968 14.264 8.416 14.584C8.864 14.872 9.44 15.176 10.144 15.496V9.976Z" fill="white"/>
</svg>
