<svg width="19" height="31" viewBox="0 0 19 31" fill="none" xmlns="http://www.w3.org/2000/svg">
<path d="M8.108 26.56C6.548 26.512 5.156 26.368 3.932 26.128C2.708 25.864 1.592 25.504 0.584 25.048V20.404C1.568 20.884 2.756 21.328 4.148 21.736C5.54 22.12 6.86 22.348 8.108 22.42V16.984C6.716 16.432 5.528 15.904 4.544 15.4C3.584 14.896 2.804 14.368 2.204 13.816C1.628 13.24 1.208 12.616 0.944 11.944C0.68 11.248 0.548 10.456 0.548 9.568C0.548 8.368 0.86 7.336 1.484 6.472C2.132 5.584 3.02 4.876 4.148 4.348C5.3 3.82 6.62 3.496 8.108 3.376V0.675998H10.52V3.304C11.864 3.352 13.124 3.508 14.3 3.772C15.5 4.036 16.664 4.42 17.792 4.924L16.136 9.028C15.176 8.62 14.204 8.308 13.22 8.092C12.26 7.876 11.36 7.732 10.52 7.66V12.844C11.816 13.324 13.052 13.852 14.228 14.428C15.404 14.98 16.352 15.688 17.072 16.552C17.816 17.416 18.188 18.556 18.188 19.972C18.188 21.724 17.552 23.188 16.28 24.364C15.008 25.54 13.088 26.248 10.52 26.488V30.088H8.108V26.56ZM10.52 22.312C11.336 22.168 11.936 21.928 12.32 21.592C12.704 21.232 12.896 20.776 12.896 20.224C12.896 19.888 12.8 19.6 12.608 19.36C12.44 19.096 12.176 18.856 11.816 18.64C11.48 18.4 11.048 18.16 10.52 17.92V22.312ZM8.108 7.732C7.628 7.804 7.22 7.924 6.884 8.092C6.548 8.236 6.284 8.44 6.092 8.704C5.924 8.944 5.84 9.232 5.84 9.568C5.84 9.904 5.912 10.204 6.056 10.468C6.224 10.708 6.476 10.948 6.812 11.188C7.148 11.404 7.58 11.632 8.108 11.872V7.732Z" fill="black"/>
</svg>
