<svg width="14" height="19" viewBox="0 0 14 19" fill="none" xmlns="http://www.w3.org/2000/svg">
<path d="M9.408 0.743999C10.208 0.743999 10.936 0.823999 11.592 0.983999C12.264 1.144 12.912 1.384 13.536 1.704L12.384 4.416C11.84 4.176 11.336 3.992 10.872 3.864C10.408 3.72 9.92 3.648 9.408 3.648C8.928 3.648 8.488 3.72 8.088 3.864C7.704 3.992 7.36 4.192 7.056 4.464C6.752 4.736 6.496 5.072 6.288 5.472C6.096 5.872 5.952 6.336 5.856 6.864H10.584V8.928H5.688C5.688 8.992 5.68 9.08 5.664 9.192C5.664 9.288 5.664 9.408 5.664 9.552C5.664 9.664 5.664 9.784 5.664 9.912C5.664 10.024 5.672 10.144 5.688 10.272H9.84V12.36H5.88C6.008 12.984 6.232 13.512 6.552 13.944C6.888 14.36 7.312 14.68 7.824 14.904C8.352 15.112 8.96 15.216 9.648 15.216C10.256 15.216 10.824 15.16 11.352 15.048C11.896 14.92 12.4 14.752 12.864 14.544V17.544C12.416 17.768 11.912 17.936 11.352 18.048C10.808 18.176 10.168 18.24 9.432 18.24C8.184 18.24 7.072 18.016 6.096 17.568C5.12 17.104 4.312 16.432 3.672 15.552C3.032 14.672 2.6 13.608 2.376 12.36H0.768V10.272H2.16C2.144 10.192 2.128 10.08 2.112 9.936C2.112 9.792 2.112 9.664 2.112 9.552C2.112 9.424 2.112 9.304 2.112 9.192C2.112 9.08 2.12 8.992 2.136 8.928H0.768V6.864H2.328C2.536 5.584 2.96 4.488 3.6 3.576C4.24 2.664 5.056 1.968 6.048 1.488C7.04 0.991999 8.16 0.743999 9.408 0.743999Z" fill="#AAAAAA"/>
</svg>
