<svg width="30" height="30" viewBox="0 0 30 30" fill="none" xmlns="http://www.w3.org/2000/svg">
<path d="M22.1428 0.214111C26.3636 0.214186 29.7852 3.63591 29.7854 7.85669V22.1428C29.7853 26.3637 26.3637 29.7853 22.1428 29.7854H7.85669C3.63591 29.7852 0.214186 26.3636 0.214111 22.1428V7.85669C0.214358 3.63602 3.63602 0.214358 7.85669 0.214111H22.1428ZM7.85669 1.21411C4.1883 1.21436 1.21436 4.1883 1.21411 7.85669V22.1428C1.21419 25.8114 4.1882 28.7852 7.85669 28.7854H22.1428C25.8115 28.7853 28.7853 25.8115 28.7854 22.1428V7.85669C28.7852 4.1882 25.8114 1.21419 22.1428 1.21411H7.85669ZM12.2004 9.42212C13.3605 8.82032 14.6811 8.59956 15.9739 8.79126L16.22 8.83228C17.4441 9.06446 18.5726 9.66046 19.4563 10.5442C20.3989 11.4869 21.0137 12.7079 21.2092 14.0266L21.2405 14.2698C21.3718 15.4841 21.1425 16.7126 20.5784 17.8C19.9764 18.9602 19.0231 19.9009 17.8557 20.4885C16.6883 21.0761 15.3648 21.281 14.0745 21.0735C12.7843 20.8658 11.5923 20.2562 10.6682 19.3323C9.74403 18.4081 9.1347 17.2154 8.927 15.925C8.71947 14.6349 8.92361 13.3121 9.51099 12.1448C10.0986 10.9772 11.0402 10.0241 12.2004 9.42212ZM15.8274 9.78052C14.7426 9.61965 13.6339 9.80476 12.6604 10.3098C11.687 10.815 10.8976 11.6144 10.4045 12.594C9.91151 13.5736 9.74008 14.6841 9.91431 15.7668C10.0886 16.8494 10.5999 17.8499 11.3752 18.6252C12.1507 19.4005 13.1511 19.9119 14.2336 20.0862C15.3163 20.2603 16.427 20.0889 17.4065 19.5959C18.386 19.1029 19.1856 18.3134 19.6907 17.3401C20.1642 16.4276 20.3566 15.3962 20.2463 14.3772L20.22 14.1731C20.0559 13.0667 19.5401 12.0422 18.7493 11.2512C18.0077 10.5097 17.0606 10.0095 16.0334 9.8147L15.8274 9.78052ZM22.9709 6.65259C23.1989 6.69912 23.3703 6.90114 23.3704 7.14282C23.3704 7.38452 23.1989 7.58652 22.9709 7.63306L22.8704 7.64282H22.8567C22.5808 7.64257 22.3567 7.41881 22.3567 7.14282C22.3567 6.86685 22.5808 6.64307 22.8567 6.64282H22.8704L22.9709 6.65259Z" fill="black"/>
</svg>
