<svg width="32" height="28" viewBox="0 0 32 28" fill="none" xmlns="http://www.w3.org/2000/svg">
<path d="M6.95786 10.0099C7.1856 10.0566 7.35727 10.2586 7.35727 10.5002V27.3C7.35718 27.5759 7.13314 27.7997 6.85727 27.8H0.761566C0.485633 27.7998 0.261653 27.5759 0.261566 27.3V10.5002L0.271332 10.3996C0.317836 10.1717 0.520003 10.0003 0.761566 10.0002H6.85727L6.95786 10.0099ZM22.5711 8.61053C24.9429 8.7187 27.2006 9.63204 28.8983 11.1916C30.7107 12.8567 31.7381 15.1255 31.7381 17.5002V27.3C31.738 27.5759 31.514 27.7998 31.2381 27.8H25.1424C24.8665 27.7998 24.6425 27.5759 24.6424 27.3V17.5002C24.6424 16.9046 24.3856 16.3231 23.912 15.8879C23.4368 15.4515 22.7831 15.1994 22.0946 15.1994C21.4062 15.1996 20.7532 15.4515 20.2782 15.8879C19.8046 16.3231 19.5478 16.9046 19.5477 17.5002V27.3C19.5476 27.5759 19.3236 27.7997 19.0477 27.8H12.952C12.6761 27.7998 12.4521 27.5759 12.452 27.3V17.5002C12.4521 15.1256 13.4795 12.8567 15.2918 11.1916C17.1027 9.52804 19.5505 8.59995 22.0946 8.59979L22.5711 8.61053ZM1.26157 26.8H6.35727V11.0002H1.26157V26.8ZM22.0946 9.59979C19.7898 9.59995 17.5866 10.4416 15.9686 11.9279C14.3519 13.4133 13.4521 15.4194 13.452 17.5002V26.8H18.5477V17.5002C18.5478 16.6108 18.9322 15.7664 19.6014 15.1516C20.2692 14.538 21.167 14.1996 22.0946 14.1994C23.0222 14.1994 23.9199 14.5382 24.5877 15.1516C25.257 15.7665 25.6424 16.6107 25.6424 17.5002V26.8H30.7381V17.5002C30.7381 15.4194 29.8383 13.4133 28.2215 11.9279C26.6033 10.4415 24.3996 9.59979 22.0946 9.59979ZM3.80942 0.200378C5.72781 0.200494 7.35716 1.63877 7.35727 3.50018C7.35706 5.36152 5.72776 6.79987 3.80942 6.79999C1.89112 6.79982 0.261773 5.36148 0.261566 3.50018C0.26168 1.6388 1.89107 0.200548 3.80942 0.200378ZM3.80942 1.20038C2.36192 1.20055 1.26168 2.26915 1.26157 3.50018C1.26178 4.73115 2.36198 5.79982 3.80942 5.79999C5.25691 5.79987 6.35706 4.73118 6.35727 3.50018C6.35715 2.26912 5.25697 1.20049 3.80942 1.20038Z" fill="black"/>
</svg>
