<svg width="33" height="31" viewBox="0 0 33 31" fill="none" xmlns="http://www.w3.org/2000/svg">
<path d="M31.625 3.87499C30.3083 4.74748 28.8504 5.4148 27.3075 5.85124C26.4794 4.95677 25.3788 4.3228 24.1547 4.03506C22.9305 3.74732 21.6418 3.8197 20.4629 4.24241C19.2839 4.66511 18.2716 5.41776 17.5629 6.39854C16.8541 7.37932 16.4831 8.54092 16.5 9.72624V11.0179C14.0836 11.0768 11.6893 10.5733 9.53014 9.55244C7.37102 8.53155 5.51419 7.02489 4.125 5.16665C4.125 5.16665 -1.375 16.7917 11 21.9583C8.16823 23.764 4.79484 24.6694 1.375 24.5417C13.75 31 28.875 24.5417 28.875 9.68749C28.8737 9.3277 28.8369 8.9688 28.765 8.6154C30.1683 7.31533 31.1586 5.67391 31.625 3.87499V3.87499Z" stroke="black" stroke-linecap="round" stroke-linejoin="round"/>
</svg>
